<svg xmlns="http://www.w3.org/2000/svg" version="1.1" xmlns:xlink="http://www.w3.org/1999/xlink" xmlns:svgjs="http://svgjs.dev/svgjs" width="1500" height="1924" viewBox="0 0 1500 1924"><g transform="matrix(1,0,0,1,-3.577654788224663,-48.0473702738002)"><svg viewBox="0 0 198 254" data-background-color="#ffffff" preserveAspectRatio="xMidYMid meet" height="1924" width="1500" xmlns="http://www.w3.org/2000/svg" xmlns:xlink="http://www.w3.org/1999/xlink"><g id="tight-bounds" transform="matrix(1,0,0,1,0.4722504320456551,6.343319860329217)"><svg viewBox="0 0 197.05549913590872 247.2" height="247.2" width="197.05549913590872"><g><svg viewBox="0 0 397.4975999999999 498.64838662649714" height="247.2" width="197.05549913590872"><g><rect width="397.4975999999999" height="11.312419592783469" x="0" y="267.2552638554541" fill="#3c2c32" opacity="1" stroke-width="0" stroke="transparent" fill-opacity="1" class="rect-yte-0" data-fill-palette-color="primary" rx="1%" id="yte-0" data-palette-color="#3c2c32"></rect></g><g transform="matrix(1,0,0,1,0.9887999999999693,308.1813473036916)"><svg viewBox="0 0 395.52 190.46703932280548" height="190.46703932280548" width="395.52"><g id="textblocktransform"><svg viewBox="0 0 395.52 190.46703932280548" height="190.46703932280548" width="395.52" id="textblock"><g><svg viewBox="0 0 395.52 125.44123017779913" height="125.44123017779913" width="395.52"><g transform="matrix(1,0,0,1,0,0)"><svg width="395.52" viewBox="1.95 -31.74 101.61 32.23" height="125.44123017779913" data-palette-color="#3c2c32"><path d="M1.95 0L13.92 0 13.92-1.27 10.06-1.27 10.06-13.43 14.7-13.43 22.51 0 29.88 0Q29.88-1.07 29.3-1.22L29.3-1.22Q29.05-1.27 28.71-1.27L28.71-1.27 26.86-1.27 18.99-13.87Q23.63-14.99 25.34-18.7L25.34-18.7Q25.98-20.17 25.98-21.68L25.98-21.68Q25.98-25.34 22.8-27.54L22.8-27.54Q20.21-29.3 16.41-29.3L16.41-29.3 1.95-29.3 1.95-28.03 5.86-28.03 5.86-1.27 1.95-1.27 1.95 0ZM10.06-28.03L14.94-28.03Q19.14-28.03 20.75-24.61L20.75-24.61Q21.39-23.19 21.39-21.63L21.39-21.63Q21.39-18.12 18.95-16.16L18.95-16.16Q17.29-14.84 15.09-14.84L15.09-14.84 10.06-14.84 10.06-28.03ZM48.97 0.49L48.97 0.49Q52.73 0.49 53.12-4.05L53.12-4.05Q53.17-4.35 53.17-4.59L53.17-4.59 51.9-4.64Q51.56-1.07 50-1.03L50-1.03Q48.73-1.12 48.68-3.56L48.68-3.56 48.68-13.87Q48.68-20.85 41.7-21.24L41.7-21.24Q41.26-21.24 40.82-21.24L40.82-21.24Q35.35-21.24 33.49-18.7L33.49-18.7Q32.91-17.87 32.91-17.04L32.91-17.04Q32.91-15.53 34.32-15.28L34.32-15.28Q34.57-15.23 34.81-15.23L34.81-15.23Q35.94-15.23 36.47-16.65L36.47-16.65Q37.16-18.46 37.4-18.8L37.4-18.8Q38.33-20.02 40.28-20.02L40.28-20.02Q44.87-19.73 45.02-14.99L45.02-14.99 45.02-11.91Q33.54-11.91 31.88-7.13L31.88-7.13Q31.59-6.2 31.59-5.13L31.59-5.13Q31.59-1.42 34.86-0.05L34.86-0.05Q36.18 0.49 37.64 0.49L37.64 0.49Q41.21 0.49 43.65-1.95L43.65-1.95Q44.53-2.88 44.97-3.91L44.97-3.91Q45.55 0.44 48.97 0.49ZM39.26-1.46L39.26-1.46Q36.28-1.46 35.59-4.44L35.59-4.44Q35.45-5.13 35.45-5.96L35.45-5.96Q35.45-9.23 39.21-10.11L39.21-10.11Q41.21-10.55 45.02-10.6L45.02-10.6 45.02-6.69Q44.28-3.32 41.45-1.95L41.45-1.95Q40.33-1.46 39.26-1.46ZM68.35 0.49L68.35 0.49Q72.65 0.49 75.58-2.73L75.58-2.73Q78.32-5.86 78.32-10.64L78.32-10.64Q78.32-16.02 75.39-19.04L75.39-19.04Q73.19-21.24 69.97-21.24L69.97-21.24Q64.64-21.24 62.4-16.46L62.4-16.46Q62.15-16.02 62.01-15.58L62.01-15.58 62.01-31.74 54.68-31.74 54.68-30.52 58.34-30.52 58.34-4.15Q58.34-1.9 57.08-1.46L57.08-1.46Q56.34-1.22 54.68-1.22L54.68-1.22 54.68 0 60.83 0 61.27-3.22Q63.37 0.15 67.62 0.44L67.62 0.44Q68.01 0.49 68.35 0.49ZM68.45-19.29L68.45-19.29Q72.46-19.29 73.68-14.4L73.68-14.4Q74.16-12.6 74.16-10.3L74.16-10.3Q74.16-3.42 70.45-1.37L70.45-1.37Q69.28-0.73 67.87-0.73L67.87-0.73Q64.2-0.73 62.69-4.64L62.69-4.64Q61.96-6.69 61.96-9.38L61.96-9.38Q61.96-15.28 64.89-17.92L64.89-17.92Q66.45-19.29 68.45-19.29ZM99.36 0.49L99.36 0.49Q103.12 0.49 103.51-4.05L103.51-4.05Q103.56-4.35 103.56-4.59L103.56-4.59 102.29-4.64Q101.95-1.07 100.38-1.03L100.38-1.03Q99.11-1.12 99.06-3.56L99.06-3.56 99.06-13.87Q99.06-20.85 92.08-21.24L92.08-21.24Q91.64-21.24 91.2-21.24L91.2-21.24Q85.73-21.24 83.88-18.7L83.88-18.7Q83.29-17.87 83.29-17.04L83.29-17.04Q83.29-15.53 84.71-15.28L84.71-15.28Q84.95-15.23 85.2-15.23L85.2-15.23Q86.32-15.23 86.86-16.65L86.86-16.65Q87.54-18.46 87.79-18.8L87.79-18.8Q88.71-20.02 90.67-20.02L90.67-20.02Q95.26-19.73 95.4-14.99L95.4-14.99 95.4-11.91Q83.93-11.91 82.27-7.13L82.27-7.13Q81.97-6.2 81.97-5.13L81.97-5.13Q81.97-1.42 85.25-0.05L85.25-0.05Q86.56 0.49 88.03 0.49L88.03 0.49Q91.59 0.49 94.04-1.95L94.04-1.95Q94.91-2.88 95.35-3.91L95.35-3.91Q95.94 0.44 99.36 0.49ZM89.64-1.46L89.64-1.46Q86.66-1.46 85.98-4.44L85.98-4.44Q85.83-5.13 85.83-5.96L85.83-5.96Q85.83-9.23 89.59-10.11L89.59-10.11Q91.59-10.55 95.4-10.6L95.4-10.6 95.4-6.69Q94.67-3.32 91.84-1.95L91.84-1.95Q90.72-1.46 89.64-1.46Z" opacity="1" transform="matrix(1,0,0,1,0,0)" fill="#3c2c32" class="wordmark-text-0" data-fill-palette-color="primary" id="text-0"></path></svg></g></svg></g><g transform="matrix(1,0,0,1,75.54432,155.05489403325322)"><svg viewBox="0 0 244.43135999999998 35.41214528955224" height="35.41214528955224" width="244.43135999999998"><g transform="matrix(1,0,0,1,0,0)"><svg width="244.43135999999998" viewBox="4 -35.7 251.23 36.400000000000006" height="35.41214528955224" data-palette-color="#f9ad59"><path d="M34.1-4.3L34.4-4.3 34.1-1.25Q32.7-0.65 30.7-0.2 28.7 0.25 26.65 0.48 24.6 0.7 23 0.7L23 0.7Q18.95 0.7 15.5-0.68 12.05-2.05 9.47-4.5 6.9-6.95 5.45-10.28 4-13.6 4-17.5L4-17.5Q4-21.4 5.45-24.73 6.9-28.05 9.47-30.5 12.05-32.95 15.5-34.33 18.95-35.7 23-35.7L23-35.7Q24.65-35.7 26.7-35.45 28.75-35.2 30.7-34.77 32.65-34.35 34-33.8L34-33.8 33.75-31 33.45-31Q31.6-32.7 28.8-33.6 26-34.5 23-34.5L23-34.5Q18.5-34.5 15.08-32.38 11.65-30.25 9.73-26.43 7.8-22.6 7.8-17.5L7.8-17.5Q7.8-12.35 9.73-8.55 11.65-4.75 15.05-2.63 18.45-0.5 23-0.5L23-0.5Q26.4-0.5 29.33-1.6 32.25-2.7 34.1-4.3L34.1-4.3ZM42.85 0L39.2 0 52.65-35 55.75-35 69.2 0 65.55 0 59.35-16.4 48-16.4 42.85 0ZM53.3-32.4L53-32.4 48.35-17.6 58.9-17.6 53.3-32.4ZM80.7 0L77.3 0 77.3-35 92-35 92-32.55 83.7-33.7Q81.45-34 80.7-34L80.7-34 80.7-18.35Q81.5-18.35 83.8-18.5L83.8-18.5 91.45-19 91.45-16.7 83.8-17.2Q81.5-17.35 80.7-17.35L80.7-17.35 80.7 0ZM105.14 0L101.74 0 101.74-35 116.44-35 116.44-32.55 108.14-33.7Q105.89-34 105.14-34L105.14-34 105.14-18.35Q105.94-18.35 108.24-18.5L108.24-18.5 115.89-19 115.89-16.7 108.24-17.2Q105.94-17.35 105.14-17.35L105.14-17.35 105.14 0ZM141.59 0L126.19 0 126.19-35 141.44-35 141.44-32.55 132.69-33.7Q130.39-34 129.59-34L129.59-34 129.59-18.75Q130.24-18.75 132.69-18.9L132.69-18.9 140.89-19.4 140.89-17.1 132.69-17.6Q130.24-17.75 129.59-17.75L129.59-17.75 129.59-1Q130.49-1 132.74-1.3L132.74-1.3 141.59-2.45 141.59 0ZM173.69 0L165.59 0 165.59-35 172.53-35Q177.94-35 180.94-32.75 183.94-30.5 183.94-26.5L183.94-26.5Q183.94-23.55 182.19-21.48 180.44-19.4 177.28-18.65L177.28-18.65 177.28-18.35Q181.59-17.8 184.01-15.38 186.44-12.95 186.44-9.25L186.44-9.25Q186.44-4.9 183.09-2.45 179.74 0 173.69 0L173.69 0ZM172.59-33.8L172.59-33.8 168.99-33.8 168.99-18.8 172.53-18.8Q180.44-18.8 180.44-26.3L180.44-26.3Q180.44-33.8 172.59-33.8ZM173.69-17.6L173.69-17.6 168.99-17.6 168.99-1.2 173.69-1.2Q182.84-1.2 182.84-9.4L182.84-9.4Q182.84-17.6 173.69-17.6ZM194.88 0L191.23 0 204.68-35 207.78-35 221.23 0 217.58 0 211.38-16.4 200.03-16.4 194.88 0ZM205.33-32.4L205.03-32.4 200.38-17.6 210.93-17.6 205.33-32.4ZM229.33 0L229.33-35 236.03-35Q241.33-35 244.26-32.77 247.18-30.55 247.18-26.55L247.18-26.55Q247.18-23.45 245.36-21.4 243.53-19.35 240.08-18.65L240.08-18.65 240.08-18.35Q243.38-17.7 245.48-15.25 247.58-12.8 248.63-9.2L248.63-9.2Q249.58-5.9 250.51-4.08 251.43-2.25 252.56-1.45 253.68-0.65 255.23-0.3L255.23-0.3 255.23 0 253.18 0Q250.98 0 249.56-0.8 248.13-1.6 247.13-3.5 246.13-5.4 245.23-8.75L245.23-8.75Q243.78-13.9 241.38-16.05 238.98-18.2 235.53-18.2L235.53-18.2 235.23-18.2 235.23-19.1 235.53-19.1Q243.58-19.1 243.58-26.5L243.58-26.5Q243.58-33.8 236.03-33.8L236.03-33.8 232.73-33.8 232.73 0 229.33 0Z" opacity="1" transform="matrix(1,0,0,1,0,0)" fill="#f9ad59" class="slogan-text-1" data-fill-palette-color="secondary" id="text-1"></path></svg></g></svg></g></svg></g></svg></g><g transform="matrix(1,0,0,1,76.53311999999997,0)"><svg viewBox="0 0 244.43135999999998 237.64159999999998" height="237.64159999999998" width="244.43135999999998"><g><svg xmlns:x="http://ns.adobe.com/Extensibility/1.0/" xmlns:i="http://ns.adobe.com/AdobeIllustrator/10.0/" xmlns:graph="http://ns.adobe.com/Graphs/1.0/" xmlns="http://www.w3.org/2000/svg" xmlns:xlink="http://www.w3.org/1999/xlink" version="1.1" x="0" y="0" viewBox="7.25 7.875 85.5 83.125" enable-background="new 0 0 100 100" xml:space="preserve" height="237.64159999999998" width="244.43135999999998" class="icon-icon-0" data-fill-palette-color="accent" id="icon-0"><g fill="#fbb168" data-fill-palette-color="accent"><path d="M88.75 33H76.25C75.902 33 75.571 33.059 75.25 33.142V28H12.25V57C12.25 72.474 23.469 85.368 38.198 88H8.75A1.5 1.5 0 1 0 8.75 91H78.75A1.5 1.5 0 0 0 78.75 88H49.302C64.031 85.368 75.25 72.474 75.25 57V55.858C75.571 55.941 75.902 56 76.25 56H88.75C90.956 56 92.75 54.206 92.75 52V37C92.75 34.794 90.956 33 88.75 33M43.75 78C32.17 78 22.75 68.579 22.75 57A1 1 0 1 1 24.75 57C24.75 67.477 33.273 76 43.75 76A1 1 0 1 1 43.75 78M89.75 52C89.75 52.542 89.292 53 88.75 53H76.25C75.708 53 75.25 52.542 75.25 52V37C75.25 36.458 75.708 36 76.25 36H88.75C89.292 36 89.75 36.458 89.75 37z" fill="#fbb168" data-fill-palette-color="accent"></path><path d="M43.75 25.875A1.5 1.5 0 0 0 45.25 24.375V9.375A1.5 1.5 0 1 0 42.25 9.375V24.375A1.5 1.5 0 0 0 43.75 25.875" fill="#fbb168" data-fill-palette-color="accent"></path><path d="M28.75 26A1.5 1.5 0 0 0 30.25 24.5V14.5A1.5 1.5 0 1 0 27.25 14.5V24.5A1.5 1.5 0 0 0 28.75 26" fill="#fbb168" data-fill-palette-color="accent"></path><path d="M58.75 26A1.5 1.5 0 0 0 60.25 24.5V17A1.5 1.5 0 1 0 57.25 17V24.5A1.5 1.5 0 0 0 58.75 26" fill="#fbb168" data-fill-palette-color="accent"></path></g></svg><g></g></g></svg></g><g></g></svg></g><defs></defs></svg><rect width="197.05549913590872" height="247.2" fill="none" stroke="none" visibility="hidden"></rect></g></svg></g></svg>